<svg xmlns="http://www.w3.org/2000/svg" viewBox="0 0 188.3 214.9"><defs><style>.cls-1{fill:#fff;}.cls-2{fill:#293549;}.cls-3{fill:#3bab5e;}.cls-4{fill:#f7f8f9;}.cls-5{fill:#424143;opacity:0.4;}.cls-5,.cls-6{isolation:isolate;}.cls-6{fill:#221f1f;opacity:0.1;}</style></defs><title>Asset 1</title><g id="Layer_2" data-name="Layer 2"><g id="homepage_mobile"><path class="cls-1" d="M0,57.7a9.1,9.1,0,0,1,4.1-7.1L90.1,1a9.1,9.1,0,0,1,8.2,0l86,49.7a9.1,9.1,0,0,1,4.1,7.1v99.3a9.1,9.1,0,0,1-4.1,7.1l-86,49.7a9.1,9.1,0,0,1-8.2,0l-86-49.7A9.1,9.1,0,0,1,0,157.1Z"/><path class="cls-2" d="M44.9,36a5.8,5.8,0,0,1,5.8-5.8h87.1a5.8,5.8,0,0,1,5.8,5.8V178.9a5.8,5.8,0,0,1-5.8,5.8H50.7a5.8,5.8,0,0,1-5.8-5.8Z"/><rect class="cls-3" x="50.7" y="50.4" width="87.1" height="109.12"/><path class="cls-4" d="M97.8,39.7H90.6a.3.3,0,0,1-.3-.3.3.3,0,0,1,.3-.3h7.2a.3.3,0,1,1,0,.6Z"/><path class="cls-4" d="M100.2,41.3H88.4A.3.3,0,0,1,88,41a.3.3,0,0,1,.3-.3h11.8a.3.3,0,0,1,.3.3A.3.3,0,0,1,100.2,41.3Z"/><path class="cls-4" d="M97.8,42.8H90.6a.3.3,0,1,1,0-.6h7.2a.3.3,0,1,1,0,.6Z"/><path class="cls-4" d="M94.3,179.4a6.3,6.3,0,0,1-6.2-6.3,6.2,6.2,0,0,1,6.2-6.2,6.2,6.2,0,0,1,6.2,6.2A6.3,6.3,0,0,1,94.3,179.4Zm0-12a5.7,5.7,0,1,0,5.7,5.7A5.7,5.7,0,0,0,94.3,167.4Z"/><rect class="cls-4" x="57.9" y="56.2" width="72.6" height="20.53"/><rect class="cls-5" x="83.4" y="83.5" width="47.2" height="20.53"/><rect class="cls-5" x="57.9" y="83.3" width="20.7" height="20.75"/><rect class="cls-5" x="83.4" y="109.1" width="47.2" height="20.53"/><rect class="cls-5" x="57.9" y="108.9" width="20.7" height="20.75"/><rect class="cls-5" x="83.4" y="134.6" width="47.2" height="20.53"/><rect class="cls-5" x="57.9" y="134.5" width="20.7" height="20.75"/><path class="cls-6" d="M184.3,50.6,98.2,1a7.7,7.7,0,0,0-3.9-1V214.9a7.7,7.7,0,0,0,3.9-1l86-49.7a9.1,9.1,0,0,0,4.1-7.1V57.7A8.7,8.7,0,0,0,184.3,50.6Z"/></g></g></svg>