<svg xmlns="http://www.w3.org/2000/svg" viewBox="0 0 90 90"><defs><style>.cls-1{fill:#009500;}.cls-2{fill:#fff;}</style></defs><title>cloud1</title><g id="Layer_2" data-name="Layer 2"><g id="homepage_mobile"><circle class="cls-1" cx="45" cy="45" r="45"/><g id="fa-angle-down"><path class="cls-2" d="M56.9,57H34.7a9.1,9.1,0,0,1-3.9-17.4c0-.3,0-.6,0-.9a10.4,10.4,0,0,1,20.1-4,5.2,5.2,0,0,1,3.4-1.3,5.2,5.2,0,0,1,5.2,5.2,5.1,5.1,0,0,1-.8,2.8A7.8,7.8,0,0,1,56.9,57ZM51,43.9H46.5V36.7a.7.7,0,0,0-.7-.7H41.9a.7.7,0,0,0-.7.7v7.2H36.7a.7.7,0,0,0-.7.7.7.7,0,0,0,.2.5l7.2,7.2.5.2.5-.2,7.1-7.2a.7.7,0,0,0,.2-.5A.6.6,0,0,0,51,43.9Z"/></g></g></g></svg>