<svg xmlns="http://www.w3.org/2000/svg" viewBox="0 0 90 90"><defs><style>.cls-1{fill:#009500;}.cls-2{fill:#fff;}</style></defs><title>costumized</title><g id="Layer_2" data-name="Layer 2"><g id="homepage_mobile"><circle class="cls-1" cx="45" cy="45" r="45"/><g id="fa-angle-down"><path class="cls-2" d="M62.5,46.6A21.3,21.3,0,0,1,44.6,57,21.4,21.4,0,0,1,26.8,46.6a2.6,2.6,0,0,1,0-2.8A21.4,21.4,0,0,1,44.6,33.5,21.4,21.4,0,0,1,62.5,43.8a2.6,2.6,0,0,1,0,2.8ZM52.5,38a9.1,9.1,0,1,1-15.8,0A20.6,20.6,0,0,0,29,45.2c3.5,5.4,9.1,9.1,15.6,9.1s12.2-3.7,15.6-9.1A20.6,20.6,0,0,0,52.5,38Zm-7.9-1.6a6.2,6.2,0,0,0-6.2,6.2,1,1,0,0,0,2,0,4.3,4.3,0,0,1,4.2-4.2,1,1,0,0,0,0-2Z"/></g></g></g></svg>