<svg xmlns="http://www.w3.org/2000/svg" viewBox="0 0 90 90"><defs><style>.cls-1{fill:#009500;}.cls-2{fill:#fff;}</style></defs><title>games</title><g id="Layer_2" data-name="Layer 2"><g id="homepage_mobile"><circle class="cls-1" cx="45" cy="45" r="45"/><g id="fa-angle-down"><path class="cls-2" d="M55.1,57a10.4,10.4,0,0,1-6.9-2.6H43.7a10.4,10.4,0,1,1-6.9-18.3H55.1a10.4,10.4,0,1,1,0,20.9ZM43.3,45.2a.6.6,0,0,0-.7-.7H38.8V40.7a.6.6,0,0,0-.7-.7H35.5a.6.6,0,0,0-.7.7v3.9H30.9a.6.6,0,0,0-.7.7v2.6a.6.6,0,0,0,.7.7h3.9v3.9a.6.6,0,0,0,.7.7h2.6a.6.6,0,0,0,.7-.7V48.5h3.9a.6.6,0,0,0,.7-.7Zm9.1,1.3a2.6,2.6,0,1,0,2.6,2.6A2.6,2.6,0,0,0,52.5,46.5Zm5.2-5.2a2.6,2.6,0,1,0,2.6,2.6A2.6,2.6,0,0,0,57.7,41.3Z"/></g></g></g></svg>