<svg xmlns="http://www.w3.org/2000/svg" viewBox="0 0 90 90"><defs><style>.cls-1{fill:#009500;}.cls-2{fill:#fff;}</style></defs><title>google</title><g id="Layer_2" data-name="Layer 2"><g id="homepage_mobile"><circle class="cls-1" cx="45" cy="45" r="45"/><g id="fa-angle-down"><path class="cls-2" d="M41.3,58.8a14.9,14.9,0,1,1,0-29.9,14.3,14.3,0,0,1,10,3.9l-4.1,3.9a8.4,8.4,0,0,0-5.9-2.3,9.4,9.4,0,0,0,0,18.9c5.9,0,8.1-4.3,8.5-6.4H41.3V41.8H55.4a12.7,12.7,0,0,1,.2,2.5C55.7,52.8,49.9,58.8,41.3,58.8Zm32-12.8H69.1v4.3H64.8V46.1H60.5V41.8h4.3V37.5h4.3v4.3h4.3Z"/></g></g></g></svg>