<svg xmlns="http://www.w3.org/2000/svg" viewBox="0 0 148 30"><defs><style>.cls-1{fill:#fff;}.cls-2{fill:#12afaf;}</style></defs><title>Asset 1</title><g id="Layer_2" data-name="Layer 2"><g id="home_page_mobile"><path class="cls-1" d="M47.2,23.9V3.7h3.6l3.1,7.9,2.2,5.9h.1c-.1-2.1-.4-5.7-.4-9.4V3.7h3.5V23.9H55.7l-3.1-7.7a62.1,62.1,0,0,1-2-6.1h-.1c.1,2,.2,5.2.2,9.2v4.6Z"/><path class="cls-1" d="M71.3,15H66.7v5.5h5.2v3.4H62.7V3.7h8.8V7.1H66.6v4.7h4.6V15Z"/><path class="cls-1" d="M76.8,7.3H73.2V3.7H84.3V7.3H80.7V23.9H76.8Z"/><path class="cls-1" d="M89,23.9,85.5,3.6h4.1l1,8.1c.3,2.3.5,4.6.7,7.1h.1c.3-2.5.7-4.7,1.1-7.1l1.4-8.1h3.2l1.4,8c.4,2.3.7,4.5,1,7.2h.1c.3-2.6.5-4.8.8-7.2l1-8h3.8l-3.6,20.3H97.5l-1.2-6.6c-.3-1.9-.6-4.2-.9-6.6h-.1c-.4,2.4-.7,4.7-1.1,6.7L92.8,24Z"/><path class="cls-1" d="M119.3,13.4c0,7.6-2.7,10.7-6.6,10.7s-6.4-4.9-6.4-10.4S108.5,3.4,113,3.4,119.3,8.8,119.3,13.4Zm-8.9.4c0,4.6.9,6.9,2.5,6.9s2.3-3,2.3-7.1-.5-6.8-2.3-6.8S110.4,9.4,110.4,13.8Z"/><path class="cls-1" d="M121.8,4a20.9,20.9,0,0,1,4.3-.4c2.2,0,4.1.3,5.4,1.5a5.4,5.4,0,0,1,1.6,4.2,5.3,5.3,0,0,1-3.1,5.1h0c1.4.5,2.1,1.8,2.5,4a33.9,33.9,0,0,0,1.3,5.5h-4.1a27.3,27.3,0,0,1-1-4.8c-.4-2.5-1-3.2-2.3-3.2h-.6V24h-3.9V4Zm3.9,8.8h.7c1.7,0,2.7-1.4,2.7-3.2s-.7-2.9-2.5-3h-.9v6.2Z"/><path class="cls-1" d="M135.9,3.7h3.9v9.1h.1l1-2.6,2.7-6.5h4.3l-4.5,8.8L148,24h-4.3l-2.9-8.4-.9,1.7V24h-4V3.7Z"/><g id="Logo"><g id="xamagon"><path id="Logo-2" class="cls-2" d="M9.9,0A2.8,2.8,0,0,0,7.6,1.3L.3,13.9a3,3,0,0,0,0,2.6L7.6,28.9A2.6,2.6,0,0,0,9.9,30H24.5a2.6,2.6,0,0,0,2.3-1.1l7.3-12.5a2.4,2.4,0,0,0,0-2.6L26.8,1.3A2.8,2.8,0,0,0,24.5,0ZM10,7.1h2.6l.3.3L17.2,15v.2h0l4.3-7.7.3-.3h2.5c.2.1.4.4.3.6l-4.2,7.5,4.2,7.4c.1.2-.1.4-.3.5H21.8l-.3-.2-4.3-7.5h-.1L12.8,23l-.3.2H10c-.2,0-.3,0-.4-.2a.4.4,0,0,1,.1-.3l4.2-7.4L9.7,7.8a.4.4,0,0,1,.2-.5h0Z"/></g></g></g></g></svg>