<svg xmlns="http://www.w3.org/2000/svg" viewBox="0 0 350.9 320"><defs><style>.cls-1{fill:#d1ecfb;}.cls-2{fill:#57d357;}.cls-3{fill:#103754;}.cls-4{fill:none;}.cls-5{fill:#c1e2de;}.cls-6{fill:#0e303f;}.cls-7{fill:#fff;}.cls-8{fill:#fd6120;}.cls-9{fill:#b7c9cb;}</style></defs><title>mobileworld</title><g id="Layer_2" data-name="Layer 2"><g id="home_page_desktop"><g id="Porque_somos_tu_mejor_elección" data-name="Porque somos tu mejor elección"><path class="cls-1" d="M190.8,0c-88.2,0-160,71.8-160,160s71.8,160,160,160,160.1-71.7,160.1-159.9S279,0,190.8,0Z"/><path class="cls-2" d="M342.4,203.6c-2.1,0-4.8,1-4.8,1.7s-2.9,2-3.9,2.4-2.8,3.3-3.2,4.3-2.8.7-3.6,1-2.6,1.8-2.6,2.6-.5.7-1-.2l-1.2,1.2-1.4,1.5c-.8,2.4-3.3,5.5-4.3,5.8s-1,4.5-1,6.2a8.2,8.2,0,0,0,1.5,4.7v1.4l.2,2.8a4.8,4.8,0,0,0,1.6,4.4c.5.3,4.4-.7,5.9-1l2.1-.8a162.8,162.8,0,0,0,16.4-38.2Z"/><path class="cls-2" d="M78.2,207.6c-.2.5,2.6,3.3,3.7,4.4a29.9,29.9,0,0,1,3.9,7.4,13.2,13.2,0,0,1,0,4.7,8.1,8.1,0,0,0,.6,2.4c.1.6-.9,5.2-.6,7.1s-2.2,7.7-2.1,10.7,1.4,6.7,1.8,6.4.7,2.6-.1,3-2,2.6-1.4,2.8,0,2.4.1,3.3.9,7,1,8.5,2.3,5.2,2.8,6.4.9,3.6,1,3.9l.3.8a10.9,10.9,0,0,1,2.3,1c.5.3,3.9.1,5.1-.1s.1-1.3-.3-1.7-.9-3.2-1.5-3.5-.8-3.7-.3-4.5,2.5-2,2.8-2.6.2-3.6-.2-4,.1-4-.2-5.9,3.1-3.5,3.3-4.8,4-3,4.8-3.7,1.6-4.8,1.2-5.6,1.4-1.6,2.2-1.6l2.1-.6c.2,0,1.3-1.8,1.7-2.2s1.6-4.7,2.5-5.4a7.8,7.8,0,0,0,1.7-4,10.7,10.7,0,0,1,2-3.7c.5-.7,4-2.3,4.7-2.5s1.6-6,1.8-8.1a46.4,46.4,0,0,1,1.4-5.5c0-.7,1.2-1.3,1.4-1.5s1-2.9,1.6-3.5,2.5-3.1,2.5-3.7a18.3,18.3,0,0,1,.7-3.2v-3.6c-.6-1.7-2.5-3.9-3-3.3s-2.6-1.5-3.8-2a18.8,18.8,0,0,0-4.6-.7c-.7,0-3.1-2-4.3-2.3s-3.9-.8-4.4-1.2-1.2-4.5-3.5-5.9-6.2-4.6-6.7-5.8-4.7-3.6-6.1-4.4-3.3-.9-3.6-.6-2-2.3-2.8-3-3.5-1.3-3.6-.7-1.8.2-2.2-.2-1.7.2-2.4.5-2.8,3.5-3.8,4.3-2.2-.7-2.9-1a6.9,6.9,0,0,0-3.8,1c-.7.5-2.2-3.5-1.8-5.3s-1.6-5.4-3.2-5.5-2-3.9-1.7-5.3-2.8-2.3-3.6-2.4-2.6,1.8-3,2.9-7.4-1.3-6.6-5.5,4.1-8.6,4.9-9.1,5.3-.7,6.3-.1a1.8,1.8,0,0,0,2.1-.2,14,14,0,0,1,4.9.5c1,.5,2.6,4.7,3.8,5.2s1.5-2.8,1.7-3.6a10.3,10.3,0,0,0-.8-3.3c-.2-.6,1.8-5.8,3.6-6.6s3.6-3.8,3.3-4.3,1.4-.9,1.7-1.2,0-4.4.6-5.3a19.8,19.8,0,0,1,4.9-3.2c1-.5,1.7-3,1.4-3.6s2.6-3,4.3-3.6,2.9.9,2.5,1l3.3-1.8c.9-.6,0-2.6-.7-3.2s-.2-2.8.6-3,1.5-2.2,1.3-2.5,3.5.3,4.8-.7.3,2.4-.6,3.9a1.6,1.6,0,0,0,1.4,2.5,1.5,1.5,0,0,1,1.5,1.2c.1.3,1.5-.5,2.4,0s1.5-1.3,1.5-2.1-2.2-2.3-2.5-3.3a52.9,52.9,0,0,1-.5-7.5c0-1-1.5-2.9-2-2.5s-1.4-2.9-2.2-3.6a4,4,0,0,1-.9-2.8c0-.5-2.5-3.2-3.2-4.5s-1.5-1-1.6-.5-1.8.7-2.6.6-1.4-3-1.4-4-3.3-1.3-3.9-2.2-2.8-.5-3.1-1a3.7,3.7,0,0,0-2.6-.9c-.3.2-.2,8.2-.6,10.2s-2.2,4-2.9,3.9-.2,1.5.1,1.4-1.3,2.3-1.5,3.9-1.8,0-2.1-1.5-1.8-3.5-2.2-3-1.4-.6-1.8-.2-3.5-1.7-4.7-2.4-1.8-4.4-2.6-4.7-.1-.8-.1-1.4,2.4-2.8,3.1-3.6a57,57,0,0,1,4.4-5.1c1-.8,1.8-2.6,1.6-3s4.5-1.8,5.8-2.2S84.4,62,84.6,61a4.3,4.3,0,0,0-1.4-3.1c-.6-.2,1.7-.3,2.5.1s3.1-.7,4.1-.2l4.3,2.5L94,62.8l-.6,4.4c-3.7,1.5-4.7,4.1-3.5,4s7.1,2.5,8.7,3.7,2.2-1.7,2.6-2.6a7.7,7.7,0,0,0,0-4.3c-.5-.6,1.8-.3,2.5.2s1.4-.6,1.8-.9.7-2.6,1-3.1-1-.9-1.2-1.6-2.6-1.7-3.5-2.2a2.1,2.1,0,0,1-.6-2.5c.3-.3-.2-2.6-.7-3.3s-3.1-1.4-4-1.4-1.8-2.1-2.4-2.4a16.8,16.8,0,0,0-4.9-.5c-.8.2-2.4-2.5-3.9-1.6s-3-.9-3.7-1.4-4.1,3.3-4,5.9,1.3,5.1,1.8,5.2-.1,2.4-.7,3.1-2.1-.7-1.5-1.3-1.5-3.3-2.2-4.4-2.3-1.5-3.5-2l-2.1,2.3a5.9,5.9,0,0,1,.2,3.1c-.5,1.6-1.8,1.8-1.8,1.2a2,2,0,0,0-1.5-.6,159.1,159.1,0,0,0-36,83.6,7.6,7.6,0,0,1,1.8,2.6c.5,1.4,2.9,2.3,3.3,2.6s.6-2.6.2-3.5.6-1.2.6-.7,2.3,3.1,3,4.1,1.5,7,2.3,8.3,7.7,4,10,4.5a12.7,12.7,0,0,1,5.5,3.7c.5.7,3.5,1,4,1.4a31.9,31.9,0,0,1,2.8,2.8,4,4,0,0,1,1.2,2c0,.3,3.9,1.8,4.9,2.9a2.4,2.4,0,0,0,2.9.3c.2-.5,1,2.1,1.5,3s.5,3,.1,3.3-.8,4.3-1.5,5.1-2.1,6.6-1.7,7.7a8.5,8.5,0,0,0,3,3.8.9.9,0,0,1,.3,1.3l-.4.3c-.6,0-.3,5.6,1.2,6.4S78.4,207.3,78.2,207.6Z"/><path class="cls-3" d="M97,110.2"/><path class="cls-2" d="M86,42.7c1.8-.3,5.1-.9,5.3-1.4a4.8,4.8,0,0,0-.1-2.2h.9c.7,0,2-3.9,2.6-4.8s5.1-2.3,6.1-2.9,3.3-2.8,4.1-3.1,2.2-2.3,2-2.6,3-2.3,4.1-2.8,1.8-1.8,1.4-2-6.9,3.5-13,6.9A180,180,0,0,0,79.7,43.6Z"/><path class="cls-2" d="M201.8,241.9c2-1.2,5.5-6.3,6.7-7.4s2-4.9,2.2-5.8a6.6,6.6,0,0,1,2.5-2.4c.6-.2,2.6-8.7,4.5-10.7s3.9-10.9,3.7-14.3,1.2-9.4,1.6-10.9a16.8,16.8,0,0,1,3.3-4.7,96.5,96.5,0,0,0,6.4-9.3c1.4-2.3,2.8-7.4,2.4-8.6s-3.3-2.1-3.9-1.4-3.5,1-4.4,1-3-4.9-4.3-5.9-2.4-6.7-3.2-7.7a53.3,53.3,0,0,0-3.5-4.4c-.7-.6-.8-3.6-.9-4.4s1.3.5,1.5,1.7,3.6,6,4.6,7.6,3.8,6.8,4.5,8.4,6.8.8,8.9-.1,4.5-2.5,4.6-3.1,3.2-2,4.1-2.6,1.6-4.4,2.2-4.9-.5-4.1-1.2-5.2-3.8-1.8-4.5-1.5-2-2.3-2.5-3.3-2.9-2.3-3.1-3a2.5,2.5,0,0,1,1-2.1c.3-.2,4.8,2.9,6.1,4.5a25.3,25.3,0,0,1,3,4.9c.2.6,3.8.7,4.6.1a1.3,1.3,0,0,1,1.8.1l.2.2h1l3.9-.6a7.6,7.6,0,0,1,2.3,4.1,4.5,4.5,0,0,0,1.8,2.2c.7.1,1.3,2.6,1.5,3.3a55.5,55.5,0,0,1,2.9,6,33.5,33.5,0,0,0,2.8,5.5,12.7,12.7,0,0,1,.8,3.9,2.6,2.6,0,0,0,2.3,1.8c.8-.1,2.6-5.6,3.1-7.7s1.8-3.8,2.2-3.8.7-1.2.7-1.6,2.2-.3,2.4-.9.8-4.3,1.6-4.8a34.6,34.6,0,0,1,4.6-2.8c.9-.3,3.6,1.8,4.1,2.9a8.6,8.6,0,0,1,.8,4c-.2.3,1.3,2.6,2.6,2.6s1.7,1.7,1.8,2.3,1.8,2.4,2.2,3.2a7.6,7.6,0,0,1,0,3.6,18.3,18.3,0,0,0,.1,4.3c.2.8,4.4,5.1,6,6.3s2.3-2.6,1.5-3.8-3.6-4-4.1-4.8-.7-4.3-.5-5.2,2.4.5,3.2,1.2a6.7,6.7,0,0,1,2.1,2.6c0,.5,5.6-2.6,5.9-6s2.1-7.2,2.2-8.2a2.4,2.4,0,0,0-1-2.2c-.5-.1.8-2.5,2.4-2.5s5.3-4.1,6.2-5.9a13.3,13.3,0,0,1,2.9-3.2,24.6,24.6,0,0,0,1.6-5.8c.2-1.6-.9-4.1-1-5.1a13.7,13.7,0,0,0-1.8-3.3,7,7,0,0,1-.5-3.3c.1-.3,1.6-.8,1.7-1.3s1.7-2.1,1.6-2.9.9,1,1.7,1.6,1.5,4.7,2.4,5.1,4.6-4.3,4.1-7.4,1-7,2-7.4,2.4-2.8,3.6-4.5a160.1,160.1,0,0,0-39.4-62.1h-.6l-1.4-.2c-2.3-.5-3.6-2.9-3.2-3.5a1.5,1.5,0,0,0,0-1c-1.3-1.2-2.5-2.3-3.9-3.3h-2.9a12.6,12.6,0,0,1-4.8-1.5c-.5-.5-2.3.5-2.4,1.5s-3.2,1.4-3.5,2.2a1.8,1.8,0,0,1-2.2.5c-.2-.5-3.2,1-4.6,1.2a20.9,20.9,0,0,0-4.7,1.6,7.1,7.1,0,0,0-2.4,2.4,7.5,7.5,0,0,1-2.6,1.8c-.6.2-.5,2.9.2,3.3s-1.4-.3-2.4-.8-2,1.2-2.3,1.7-1.2-.3-1.2-1.2-2.4-1.4-2.6-.8-2-.2-2.6-.6-3.7,2.8-4.8,3.9-6.4,2-7.4,1.6-2,2.3-1.2,2.5h-3.2a28.1,28.1,0,0,0-7.6,2.9,1.3,1.3,0,0,1-2.1-.8c0-.7-1.8-1.3-2.3-1.4s-1.6,3.6-2.5,4.3-2.1-2.9-4.4-3.6-5.8-2.8-6.8-3-3-2.3-3.6-3-3.5-1-4.4-1-3.9,1.7-4.7,2.3-2,.5-2.4.8l-5.1,4.5c-1.3,1-3.6,5.4-4.3,6.6a2.8,2.8,0,0,1-2.2,1.3,2.2,2.2,0,0,0-.8,1.6c0,.5-3.8,2.4-4.3,4.1s.5,5.8.5,7.1,1.4,4.3,2.4,4.3.6,2.4.2,3.1.7,1.4.6,2-2.6,1.4-3.5,1.6a5.8,5.8,0,0,0-2.3,2.9c-.1.6-2.6,1-3.6,1.8a10.5,10.5,0,0,1,.7-1.8,3.1,3.1,0,0,0-.6-2.9c-.3-.3-.6-4.9-1.3-6a25.8,25.8,0,0,0-2.6-3c-.3-.3.2-1.5.6-2.1s-2.2-.8-2.8-.5-1,4.9-1.3,6.2a3.9,3.9,0,0,0,1.6,3.2c.5.1.2,2.3-.6,2.4s-1.6,3.3-1.2,4.1-.6,2.2-1,2.5,3.2.1,4.9.1a4.5,4.5,0,0,1,2.9.8c-.1.1-3.2.6-3.8,1.3s-2.6,2.1-3,2.6.7,1.7,1.5,1.7,1.8,3,2.5,3.6a2.5,2.5,0,0,1,.1,2.6c-.2.5-4.5-.2-6,.1s-3.6,3.7-3.7,4.9a32.7,32.7,0,0,0,.5,5.9c.1,1,3.5,1.6,4.1,2.1s3.8,0,4.5.3,2.8-3.2,3.2-4.8,3.8-4.6,4.5-5.8,4.3-.9,5.2-1.5.5,2.8.8,4.6,3.9,1.6,3.3-.1.3-2.4.5-1.8,3.5,2,4.1,2.9.5,3-.2,3-.8,2.2,0,2.5,1.8-2.5,2.6-3,1.5-2.2,1.2-2.3.7-1.7,1.2-1.2a20.5,20.5,0,0,0-3.2-4.8c-1.5-1.5-.3-.8,2.2,1.4l1.8,2.5c.3.5.8,1.8,1.2,2.3l.5.7a18.6,18.6,0,0,1,.7,4,2.6,2.6,0,0,0,2.3,1.8,1.5,1.5,0,0,1,1.4.5c-.1.1.6,1.7,1.4,1.7s1.3-2.2.3-2.2-.7-3.2-.8-4.7.6-2.5.9-2.5,0,2.9,0,3.6a11.2,11.2,0,0,0,.8,2.9l.9.7,2,1.5c2.9-.8,6.8-.1,6.6.5s2.1.7,2.2-.2.2.1.2.7-1.8,3.2-2.2,4.4-7,.3-9.9.1-7.1.7-7.4,1.6-4.7-2-6.8-2.8-3.7-3.9-4-4.4.3-1.4.1-2.1-4.8-.7-6.2-.2-8.4,1.3-10,2-4.1,0-4.9-.1-2.6,2.2-3.6,2.5-2.1,3.7-2.6,7.2l-1.3,2.4-.8,1.6c-2.3,1.7-4.8,7.6-5.6,8.9s-1.4,9.7-1.4,12.5,2.4,8.9,3.2,10.6,4.9,5.3,6.4,6.2,6.1,1,7.6,1a4.5,4.5,0,0,0,3.8-3.2l2.2.2h1c0,1.3,3.3,2.2,4.1,2.6a6.3,6.3,0,0,0,3.6-.1c.6-.1,1.4,5.6.9,7.4s1.2,7.6,1.6,9.4,2.5,6.7,2.6,8.4-1.2,7.6-1.4,9.7,2.5,7.7,3.2,9.7a35.7,35.7,0,0,1,1.3,7.1c0,.9,3,6.9,3.7,9.3S199.8,243,201.8,241.9Z"/><path class="cls-2" d="M333.6,169.2c.1.5,2.1-1,3.2-1.3s1.8-3.2.9-3.5-2-2.6-2.6-2.9-1.8,1-1.8,2-2.1,1.3-2.5,2.1-.3,1.3,0,1.3A10.5,10.5,0,0,1,333.6,169.2Z"/><path class="cls-2" d="M331.3,186.1c.6-.2,0-3.2-1.3-3.5s-4.5,4-3.9,6.4,1.3,2.3,1.6,1.7,2.3.3,2.9.5.6-.3,0-1.3S330.8,186.3,331.3,186.1Z"/><path class="cls-2" d="M324.8,183.1c.1-1,.3-4.5.5-5.2s-1.8-2.6-2.9-3-4.1,6.6-6.4,7.8-3.1,5.5-2.5,6.4,5.4,1.5,6.2,2.2,1.7-.1,2.3-.2.3-.5.1-.6,1.6-2.1,2-3.3A31.7,31.7,0,0,0,324.8,183.1Z"/><path class="cls-2" d="M311.7,194.7c-1.7-.7-3.9.3-4,1s6.9,1.8,9.3,2.4,3.8.8,3.3.5Z"/><path class="cls-2" d="M326.3,148.1c.6-.8-.8-4.5-1.5-3.7s-.1,3,0,3.8S325.7,148.9,326.3,148.1Z"/><path class="cls-2" d="M330.4,156.2c.5-.9-.5-2-2.1-2.3s-1.3,4.3-.6,4.8S330.1,157.1,330.4,156.2Z"/><path class="cls-2" d="M338.6,184.9c1.8,1.3,6,.7,6.1-1.7C342.8,181.9,338.5,182.2,338.6,184.9Z"/><path class="cls-2" d="M337.6,127.9a2.6,2.6,0,0,0-.9,2.4h-.3c-.6,0-.7,2.4,0,2.9s2.2-1.8,3-2.4a3.9,3.9,0,0,1,2.6-.7,7.7,7.7,0,0,0,3.1-.9,2.8,2.8,0,0,0,.9-1c-.3-1.7-.8-3.5-1.2-5.3l-2.1,1.5Z"/><path class="cls-3" d="M295.2,177.1"/><path class="cls-2" d="M306.7,187.8a21.2,21.2,0,0,0-4.8-5.6l-.7-1.3-.8-1.4c-.7-1.5-3-2.6-3.2-3.1s-.9,1.3-1.7.8l2.4,1.7c2.1,1.5,6.2,12,7.2,12.7S307.4,189.3,306.7,187.8Z"/><path class="cls-2" d="M273.7,170.9c-.6,1.2,3,3.7,3.3,3.1a7.6,7.6,0,0,0-1-4C275.3,169.3,274.4,169.8,273.7,170.9Z"/><path class="cls-2" d="M225.4,226.6c.1,1.3,2.6,2.2,3.3,2s2.8-3.9,3-4.9a32.3,32.3,0,0,0,.6-3.9,5.1,5.1,0,0,1,.6-2,7.7,7.7,0,0,0,1-2.8c.2-1.4-1.5-7.9-1.5-9.1s-1.3.6-1.6,1.7-3.6,3.6-4.4,4.5-1.5,4.3-1.2,4.8a7.4,7.4,0,0,1-.6,3.5C224.3,221.1,225.2,225.4,225.4,226.6Z"/><path class="cls-2" d="M107.5,272.1h2.2C110,269.7,107.4,270,107.5,272.1Z"/><path class="cls-2" d="M166.2,24.4a7.4,7.4,0,0,1-3.7-.8,8.9,8.9,0,0,0-4.9-.3c-1,.5-.3-2.5,1-2.8s.2-2.3-1.3-2.3-5.3-.6-6.1-.3a14.8,14.8,0,0,1-3.2-.7c-.6-.1-5.2,1.4-7.2,1.3a48.9,48.9,0,0,0-8.5.5c-1.2.2-2,2.5-1.7,3.3s-5.1.8-6.7.8-10.5,1.8-12.8,3.1-4,4.5-3.3,4.5-1.3,1.8-2.5,2.3-4.1.6-4.8,1.3.7,1.2.9,1.6,1-.3,1.8.1,3.3.6,4,.9-2.2.8-3.5.9-1,2.6,0,3.1,3.9.7,4.1.2,3.3.5,4.7.7,2.4,3.6,2.9,4.4.5,3.3.5,4.1,2.4,2.1,2.9,1.6.3,1.2-.7,1-.3,2.8.9,3.2.3,2.2-.3,2.8-.3,2.2-1,2.9,2.6,6.4,2.5,9.4,1.8,5.4,2.5,5.4,3.1.6,3.5,1.3,1.5-.5,2-.9a29.5,29.5,0,0,0,2.2-3.2c.8-1.3,2.4-7.2,2.6-7.9s3-.2,3.7-.6l3-2.2c.5-.5,4.5-2.1,5.6-2.9s2.9-4.1,3.8-4.9-.5-.5-1.5-1.2a1.2,1.2,0,0,1-.4-1.6l.2-.3c.2-.3,3.6.5,4.6.9s3.2-1,2.4-1.6-.3-.6,0-.3.8-2,.5-2.4,3.2-3.1,2.6-5.6.9-5.2,2-5.2.7-2.9-.6-3.1,0-.5.5-.9a7.2,7.2,0,0,0,.7-3.5c-.2-.5,1.8-1,2.2-1.6a9.8,9.8,0,0,1,3.6-1.8C166.4,26.7,167,24.4,166.2,24.4Z"/><path class="cls-2" d="M186.9,26.7c-1.2-.3-3.5.9-3.1,1.6s-1.8-.9-3.3-.1-2,3.5-1.3,3.8,1.2,2.4,1.2,2.9,2.9.1,3.7-.5.6,2.1-.1,2.9.2,2.2,1,2.3,1.8,2,2.8,2,2.3-3.2,2.5-4.4,3.1-.2,4.4.1,1.7-4.4.3-5.2-3.1-.3-3.7-.9a4.4,4.4,0,0,0-2.2-1.2C188.6,29.9,188,27,186.9,26.7Z"/><path class="cls-2" d="M198,29a7.9,7.9,0,0,0,5.3-2.1c.6-.5-6.2-1.8-8.9-2s-4.6.2-4.6.8S195.9,28.6,198,29Z"/><path class="cls-2" d="M156.9,90.1c-.6-.2-.9,2-.8,2.8s2.2.8,3.1.6a1.8,1.8,0,0,0,1.5-1.6c0-.7-1.3-4-1.7-4S157.5,90.3,156.9,90.1Z"/><path class="cls-2" d="M163.5,63.9c-.5-.8-3.9-.7-4.8-.7a12.2,12.2,0,0,1-4-1.5c-.6-.6-.8,2.2-1.6,2.5s.5.8.7.6,0,1.4-.5,2,2.3.9,2.6,1.8a2.3,2.3,0,0,0,2.4,1.3c1-.1,3.1-1.3,3.9-1.4S164,64.9,163.5,63.9Z"/><path class="cls-2" d="M238,43.7c1.2-1.2,6.2-2.9,6.8-4.1a1.6,1.6,0,0,0-.6-2.2h-.2a1.7,1.7,0,0,0-1.3.8c-.1.2-5.9,1.5-7.6,2.4a19.1,19.1,0,0,0-4.5,2.9c-.7.7-2,6.4-2.3,7s1.8,2.9,2.9,3.6a5.3,5.3,0,0,0,2.9.2c.5-.1-.5-4-1-5.4S236.8,45,238,43.7Z"/><path class="cls-2" d="M231.9,28.9c1.8,1.8,2.9-.8,4.9-.6C236.8,24.4,231.6,25.9,231.9,28.9Z"/><path class="cls-2" d="M268.6,29.7c0,.7,5.2,1.3,6.8.9s-.3-2.6-2.5-2.5S268.6,29,268.6,29.7Z"/><path class="cls-2" d="M77.2,68.8c-.6.5,0,3.1.9,3.1s2.8-3.9,4-3.1,2.2,1,2,.7-3.9-2-4.4-2.3S77.7,68.3,77.2,68.8Z"/><path class="cls-2" d="M90.6,156.6c0,.5,2.3.3,2.6-.3s.1-1.3-.5-1.3A3.7,3.7,0,0,0,90.6,156.6Z"/><path class="cls-2" d="M80.4,152.9c1-.2.6,1.5.8,2.2s2.9,1.2,3.5,1.6,1.8-.8,2.9-.7-.3-3.7-2.1-3.6-3.1-1.6-3.6-1.8a19.1,19.1,0,0,1-3-1.8c-.6-.5-5.1-.8-6.6-.8a4.7,4.7,0,0,0-3.5,2.1c-.2.5,2.4.9,3.1.5s4.3.5,5.1,1.3A4.3,4.3,0,0,0,80.4,152.9Z"/><path class="cls-2" d="M75.6,156.6c0,.5,2.3.1,2.9.1s.6-.5,0-.8S75.6,156.2,75.6,156.6Z"/><path class="cls-2" d="M77.2,144.7c-.6-.2-1,.7-1,1.2a.8.8,0,0,0,.7.8C77.3,146.6,77.9,144.9,77.2,144.7Z"/><path class="cls-2" d="M82.1,145a2,2,0,0,0-1.5-.8c-.3,0-.5.7-.5,1.7S82.2,145.5,82.1,145Z"/><path class="cls-2" d="M85.6,150.4c.9-.5,1-1.5.5-1.5s-1.6-1.6-2.2-1.8-1,1-1,1.5a.7.7,0,0,0,.6.8h.1C84,149.3,84.6,150.9,85.6,150.4Z"/><path class="cls-2" d="M345.6,187c-.5.2-2.8.5-3.1.1s-.7.9-1.3,1.2-.2,1.4.6,1,2.8.9,4.5,2.1c.3-1.7.7-3.6.9-5.4Z"/><path class="cls-2" d="M78.2,207.6c-.2.5,2.6,3.3,3.7,4.4a29.9,29.9,0,0,1,3.9,7.4,13.2,13.2,0,0,1,0,4.7,8.1,8.1,0,0,0,.6,2.4c.1.6-.9,5.2-.6,7.1s-2.2,7.7-2.1,10.7,1.4,6.7,1.8,6.4.7,2.6-.1,3-2,2.6-1.4,2.8,0,2.4.1,3.3.9,7,1,8.5,2.3,5.2,2.8,6.4.9,3.6,1,3.9l.3.8a10.9,10.9,0,0,1,2.3,1c.5.3,3.9.1,5.1-.1s.1-1.3-.3-1.7-.9-3.2-1.5-3.5-.8-3.7-.3-4.5,2.5-2,2.8-2.6.2-3.6-.2-4,.1-4-.2-5.9,3.1-3.5,3.3-4.8,4-3,4.8-3.7,1.6-4.8,1.2-5.6,1.4-1.6,2.2-1.6l2.1-.6c.2,0,1.3-1.8,1.7-2.2s1.6-4.7,2.5-5.4a7.8,7.8,0,0,0,1.7-4,10.7,10.7,0,0,1,2-3.7c.5-.7,4-2.3,4.7-2.5s1.6-6,1.8-8.1a46.4,46.4,0,0,1,1.4-5.5c0-.7,1.2-1.3,1.4-1.5s1-2.9,1.6-3.5,2.5-3.1,2.5-3.7a18.3,18.3,0,0,1,.7-3.2v-3.6c-.6-1.7-2.5-3.9-3-3.3s-2.6-1.5-3.8-2a18.8,18.8,0,0,0-4.6-.7c-.7,0-3.1-2-4.3-2.3s-3.9-.8-4.4-1.2-1.2-4.5-3.5-5.9-6.2-4.6-6.7-5.8-4.7-3.6-6.1-4.4-3.3-.9-3.6-.6-2-2.3-2.8-3-3.5-1.3-3.6-.7-1.8.2-2.2-.2-1.7.2-2.4.5-2.8,3.5-3.8,4.3-2.2-.7-2.9-1a6.9,6.9,0,0,0-3.8,1c-.7.5-2.2-3.5-1.8-5.3s-1.6-5.4-3.2-5.5-2-3.9-1.7-5.3-2.8-2.3-3.6-2.4-2.6,1.8-3,2.9-7.4-1.3-6.6-5.5,4.1-8.6,4.9-9.1,5.3-.7,6.3-.1a1.8,1.8,0,0,0,2.1-.2,14,14,0,0,1,4.9.5c1,.5,2.6,4.7,3.8,5.2s1.5-2.8,1.7-3.6a10.3,10.3,0,0,0-.8-3.3c-.2-.6,1.8-5.8,3.6-6.6s3.6-3.8,3.3-4.3,1.4-.9,1.7-1.2,0-4.4.6-5.3a19.8,19.8,0,0,1,4.9-3.2c1-.5,1.7-3,1.4-3.6s2.6-3,4.3-3.6,2.9.9,2.5,1l3.3-1.8c.9-.6,0-2.6-.7-3.2s-.2-2.8.6-3,1.5-2.2,1.3-2.5,3.5.3,4.8-.7.3,2.4-.6,3.9a1.6,1.6,0,0,0,1.4,2.5,1.5,1.5,0,0,1,1.5,1.2c.1.3,1.5-.5,2.4,0s1.5-1.3,1.5-2.1-2.2-2.3-2.5-3.3a52.9,52.9,0,0,1-.5-7.5c0-1-1.5-2.9-2-2.5s-1.4-2.9-2.2-3.6a4,4,0,0,1-.9-2.8c0-.5-2.5-3.2-3.2-4.5s-1.5-1-1.6-.5-1.8.7-2.6.6-1.4-3-1.4-4-3.3-1.3-3.9-2.2-2.8-.5-3.1-1a3.7,3.7,0,0,0-2.6-.9c-.3.2-.2,8.2-.6,10.2s-2.2,4-2.9,3.9-.2,1.5.1,1.4-1.3,2.3-1.5,3.9-1.8,0-2.1-1.5-1.8-3.5-2.2-3-1.4-.6-1.8-.2-3.5-1.7-4.7-2.4-1.8-4.4-2.6-4.7-.1-.8-.1-1.4,2.4-2.8,3.1-3.6a57,57,0,0,1,4.4-5.1c1-.8,1.8-2.6,1.6-3s4.5-1.8,5.8-2.2S84.4,62,84.6,61a4.3,4.3,0,0,0-1.4-3.1c-.6-.2,1.7-.3,2.5.1s3.1-.7,4.1-.2l4.3,2.5L94,62.8l-.6,4.4c-3.7,1.5-4.7,4.1-3.5,4s7.1,2.5,8.7,3.7,2.2-1.7,2.6-2.6a7.7,7.7,0,0,0,0-4.3c-.5-.6,1.8-.3,2.5.2s1.4-.6,1.8-.9.7-2.6,1-3.1-1-.9-1.2-1.6-2.6-1.7-3.5-2.2a2.1,2.1,0,0,1-.6-2.5c.3-.3-.2-2.6-.7-3.3s-3.1-1.4-4-1.4-1.8-2.1-2.4-2.4a16.8,16.8,0,0,0-4.9-.5c-.8.2-2.4-2.5-3.9-1.6s-3-.9-3.7-1.4-4.1,3.3-4,5.9,1.3,5.1,1.8,5.2-.1,2.4-.7,3.1-2.1-.7-1.5-1.3-1.5-3.3-2.2-4.4-2.3-1.5-3.5-2l-2.1,2.3a5.9,5.9,0,0,1,.2,3.1c-.5,1.6-1.8,1.8-1.8,1.2a2,2,0,0,0-1.5-.6l-2.1,2.6-2.1,2.6L60.5,68l-1.8,2.5L56,74.4l-2.4,3.8c-.7,1-1.3,2.2-2,3.3a12.9,12.9,0,0,0-1.3,2.3l-2,3.6-1,2.1c-1.4,2.8-2.8,5.6-4,8.6v.2l-1.7,4.4-.7,1.6-1.6,4.5-.2.7A158.2,158.2,0,0,0,34.6,125c-.1.3-.1.7-.2,1A158.6,158.6,0,0,0,31.5,143h0a7.6,7.6,0,0,1,1.8,2.6c.5,1.4,2.9,2.3,3.3,2.6s.6-2.6.2-3.5.6-1.2.6-.7,2.3,3.1,3,4.1,1.5,7,2.3,8.3,7.7,4,10,4.5a12.7,12.7,0,0,1,5.5,3.7c.5.7,3.5,1,4,1.4a31.9,31.9,0,0,1,2.8,2.8,4,4,0,0,1,1.2,2c0,.3,3.9,1.8,4.9,2.9a2.4,2.4,0,0,0,2.9.3c.2-.5,1,2.1,1.5,3s.5,3,.1,3.3-.8,4.3-1.5,5.1-2.1,6.6-1.7,7.7a8.5,8.5,0,0,0,3,3.8.9.9,0,0,1,.3,1.3l-.4.3c-.6,0-.3,5.6,1.2,6.4S78.4,207.3,78.2,207.6Z"/><line class="cls-4" x1="97" y1="110.2" x2="97" y2="110.2"/><path class="cls-2" d="M86,42.7c1.8-.3,5.1-.9,5.3-1.4a4.8,4.8,0,0,0-.1-2.2h.9c.7,0,2-3.9,2.6-4.8s5.1-2.3,6.1-2.9,3.3-2.8,4.1-3.1,2.2-2.3,2-2.6,3-2.3,4.1-2.8,1.8-1.8,1.4-2-6.9,3.5-13,6.9h-.1l-5.2,3.7-3.3,2.6-1.7,1.4-3.9,3.3-.8.7-4.3,3.8Z"/><path class="cls-2" d="M187.4,120.8c-.7,0-.8,2.2,0,2.5s1.3-1.3,2-2.2v-8.9h-.1c-.9-.9-.8-.9.1-.2V57.2L187.2,59c-1.3,1-3.6,5.4-4.3,6.6a2.8,2.8,0,0,1-2.2,1.3,2.2,2.2,0,0,0-.8,1.6c0,.5-3.8,2.4-4.3,4.1s.5,5.8.5,7.1,1.4,4.3,2.4,4.3.6,2.4.2,3.1.7,1.4.6,2-2.6,1.4-3.5,1.6a5.8,5.8,0,0,0-2.3,2.9c-.1.6-2.6,1-3.6,1.8s.6-1.4.7-1.8a3.1,3.1,0,0,0-.6-2.9c-.3-.3-.6-4.9-1.3-6a25.8,25.8,0,0,0-2.6-3c-.5-.3.2-1.5.6-2.1s-2.2-.8-2.8-.5-1,4.9-1.3,6.2a3.9,3.9,0,0,0,1.6,3.2c.5.1.2,2.3-.6,2.4s-1.6,3.3-1.2,4.1-.6,2.2-1,2.5,3.2.1,4.9.1a4.5,4.5,0,0,1,2.9.8c-.1.1-3.2.6-3.8,1.3s-2.6,2.1-3,2.6.7,1.7,1.5,1.7,1.8,3,2.5,3.6a2.5,2.5,0,0,1,.1,2.6c-.2.5-4.5-.2-6,.1s-3.6,3.7-3.7,4.9a32.2,32.2,0,0,0,.5,5.9c.1.9,3.5,1.6,4.1,2.1s3.8,0,4.5.3,2.8-3.2,3.2-4.8,3.8-4.6,4.5-5.8,4.3-.9,5.2-1.5.5,2.8.8,4.6,3.9,1.6,3.3-.1.3-2.4.5-1.8,3.5,2,4.1,2.9S188,120.8,187.4,120.8Z"/><path class="cls-2" d="M189.3,131.7l-1.7-.8c-2.1-.8-3.7-3.9-4-4.4s.3-1.4.1-2.1-4.8-.7-6.2-.2-8.4,1.3-10,2-4.1,0-4.9-.1-2.6,2.2-3.6,2.5-2.1,3.7-2.6,7.2l-1.3,2.4-.8,1.6c-2.3,1.7-4.8,7.6-5.6,8.9s-1.4,9.7-1.4,12.5,2.4,8.9,3.2,10.6,4.9,5.3,6.4,6.2,6.1,1,7.6,1a4.5,4.5,0,0,0,3.8-3.2l2.2.2h1c0,1.3,3.3,2.2,4.1,2.6a6.3,6.3,0,0,0,3.6-.1c.6-.1,1.4,5.6.9,7.4s1.2,7.6,1.6,9.4,2.5,6.7,2.6,8.4-1.2,7.6-1.4,9.7,2.5,7.7,3.2,9.7a35.7,35.7,0,0,1,1.3,7.1,21.4,21.4,0,0,0,1.6,4.1V131.5h0Z"/><path class="cls-2" d="M107.5,272.1h2.2C110,269.7,107.4,270,107.5,272.1Z"/><path class="cls-2" d="M151.7,53.3c1.2.5,3.2-1,2.4-1.6s-.3-.6,0-.3.8-2,.5-2.4,3.2-3.1,2.6-5.6,1-5.2,2-5.2.7-2.9-.6-3.1,0-.5.5-.9a7.2,7.2,0,0,0,.7-3.5c-.2-.5,1.8-1,2.2-1.6a9,9,0,0,1,3.6-1.8c.9-.1,1.3-2.4.5-2.3a7.4,7.4,0,0,1-3.7-.8c-.5-.5-3.9-.8-4.9-.5s-.3-2.5,1-2.8.2-2.3-1.3-2.3-5.3-.6-6.1-.3a14.8,14.8,0,0,1-3.2-.7c-.6-.1-5.2,1.4-7.2,1.3a48.5,48.5,0,0,0-8.5.5c-1.2.2-2,2.5-1.7,3.3s-5.1.8-6.7.8-10.5,1.8-12.8,3.1-4,4.5-3.3,4.5-1.3,1.8-2.5,2.3-4.1.6-4.8,1.3.7,1.2.9,1.6,1-.5,1.8,0,3.3.6,4,.9-2.2.8-3.5.9-1,2.6,0,3.1,3.9.7,4.1.2,3.3.5,4.7.7,2.4,3.6,2.9,4.4.5,3.3.5,4.1,2.4,2.1,2.9,1.6.3,1.2-.7,1-.3,2.8.9,3.2.3,2.2-.3,2.8-.3,2.2-1,2.9,2.6,6.4,2.5,9.4,1.8,5.4,2.5,5.4,3.1.6,3.5,1.3,1.5-.5,2-.9a29.5,29.5,0,0,0,2.2-3.2c.8-1.3,2.4-7.2,2.6-7.9s3-.2,3.7-.6l3-2.2c.5-.5,4.5-2.1,5.6-2.9s2.9-4.1,3.8-4.9-.5-.5-1.5-1.2a1.2,1.2,0,0,1-.4-1.6l.2-.3C147.3,52,150.7,52.8,151.7,53.3Z"/><path class="cls-2" d="M186.9,26.7c-1.2-.3-3.5.9-3.1,1.6s-1.8-.9-3.3-.1-2,3.5-1.3,3.8,1.2,2.4,1.2,2.9,2.9.1,3.7-.5.6,2.1-.1,2.9.2,2.2,1,2.3,1.8,2,2.8,2a2.8,2.8,0,0,0,1.5-1.7V29.9h0C188.6,29.9,188,27,186.9,26.7Z"/><path class="cls-2" d="M159.3,93.4a1.8,1.8,0,0,0,1.5-1.6c0-.7-1.3-4-1.7-4s-1.4,2.4-2.1,2.2-.9,2-.8,2.8S158.3,93.6,159.3,93.4Z"/><path class="cls-2" d="M156.1,68.7a2.3,2.3,0,0,0,2.4,1.3c1-.1,3.1-1.3,3.9-1.4s1.5-3.8,1-4.6-3.9-.7-4.8-.7a12.2,12.2,0,0,1-4-1.5c-.6-.6-.8,2.2-1.6,2.5s.3.8.7.6,0,1.4-.5,2S155.8,68,156.1,68.7Z"/><path class="cls-2" d="M77.2,68.8c-.6.5,0,3.1.9,3.1s2.8-3.9,4-3.1,2.2,1,2,.7-3.9-2-4.4-2.3S77.7,68.3,77.2,68.8Z"/><path class="cls-2" d="M90.6,156.6c0,.5,2.3.3,2.6-.3s.1-1.3-.5-1.3A3.7,3.7,0,0,0,90.6,156.6Z"/><path class="cls-2" d="M80.4,152.9c1-.2.6,1.5.8,2.2s2.9,1.2,3.5,1.6,1.8-.8,2.9-.7-.3-3.7-2.1-3.6-3.1-1.6-3.6-1.8a19.1,19.1,0,0,1-3-1.8c-.6-.5-5.1-.8-6.6-.8a4.7,4.7,0,0,0-3.5,2.1c-.2.5,2.4.9,3.1.5s4.3.5,5.1,1.3A4.3,4.3,0,0,0,80.4,152.9Z"/><path class="cls-2" d="M75.6,156.6c0,.5,2.3.1,2.9.1s.6-.5,0-.8S75.6,156.2,75.6,156.6Z"/><path class="cls-2" d="M77.2,144.7c-.6-.2-1,.7-1,1.2a.8.8,0,0,0,.7.8C77.3,146.6,77.9,144.9,77.2,144.7Z"/><path class="cls-2" d="M82.1,145a2,2,0,0,0-1.5-.8c-.3,0-.5.7-.5,1.7S82.2,145.5,82.1,145Z"/><path class="cls-2" d="M85.6,150.4c.9-.5,1-1.5.5-1.5s-1.6-1.6-2.2-1.8-1,1-1,1.5a.7.7,0,0,0,.6.8h.1C84,149.3,84.6,150.9,85.6,150.4Z"/><path class="cls-5" d="M91.3,39.4c-.1-.1-.8.3-.5.6A.4.4,0,0,0,91.3,39.4Z"/><path class="cls-5" d="M109,92.2c-.1-.1-.8.3-.6.6S109.4,92.6,109,92.2Z"/><path class="cls-6" d="M108.3,46.5H19.4A19.4,19.4,0,0,0,0,65.9V279a19.4,19.4,0,0,0,19.4,19.4h88.9A19.4,19.4,0,0,0,127.8,279V66a19.3,19.3,0,0,0-19.1-19.6Z"/><path class="cls-7" d="M47,61.6H80.6a1.7,1.7,0,0,1,1.7,1.7,1.6,1.6,0,0,1-1.5,1.7H47a1.7,1.7,0,0,1,0-3.5Z"/><path class="cls-7" d="M63.8,284.2a11.3,11.3,0,1,1,11.3-11.3A11.4,11.4,0,0,1,63.8,284.2Z"/><rect class="cls-7" x="8.3" y="84.9" width="111" height="164.34"/><path class="cls-3" d="M63.8,265.1a7.9,7.9,0,0,0-7.8,7.8,7.8,7.8,0,1,0,7.8-7.8Z"/><rect class="cls-8" x="14.7" y="122.8" width="98.2" height="50.5"/><rect class="cls-9" x="41.6" y="101.1" width="71" height="7.02"/><path class="cls-9" d="M33.1,104.7a9.2,9.2,0,1,1-9.2-9.2A9.2,9.2,0,0,1,33.1,104.7Z"/><rect class="cls-9" x="14.7" y="205.8" width="98.2" height="2.89"/><rect class="cls-9" x="14.7" y="215.8" width="98.2" height="2.89"/><rect class="cls-9" x="14.7" y="225.7" width="98.2" height="2.89"/><rect class="cls-9" x="14.7" y="235.5" width="71.3" height="2.89"/><rect class="cls-9" x="14.7" y="186.5" width="65.3" height="7.02"/><path class="cls-7" d="M42,152.3V139.5h2.3l2,5.1,1.4,3.7h0c-.1-1.4-.2-3.6-.2-5.9v-2.9h2.2v12.8H47.3l-2-4.8a36.8,36.8,0,0,1-1.3-3.8h0c0,1.3.1,3.2.1,5.9v2.9H42Z"/><path class="cls-7" d="M57.2,146.6H54.3v3.5h3.3v2.2H51.9V139.5h5.5v2.2H54.3v3h2.9v2.1Z"/><path class="cls-7" d="M60.6,141.8H58.3v-2.3h7v2.3H63v10.5H60.5V141.8Z"/><path class="cls-7" d="M68.4,152.3l-2.2-12.8h2.5l.6,5.1c.1,1.5.2,2.9.5,4.5h0c.1-1.6.5-3,.7-4.5l.9-5.1h2l.8,5.1c.2,1.5.5,2.9.6,4.5h0l.5-4.5.6-5.1h2.4l-2.3,12.8H73.7l-.8-4.1c-.2-1.2-.3-2.6-.6-4.1h0c-.2,1.5-.5,3-.7,4.3l-.8,4.1H68.4Z"/><path class="cls-7" d="M87.5,145.7c0,4.8-1.7,6.8-4.1,6.8s-4-3.1-4-6.6,1.4-6.6,4.3-6.6S87.5,142.7,87.5,145.7Zm-5.6.2c0,2.9.6,4.4,1.6,4.4s1.5-1.8,1.5-4.5-.3-4.3-1.5-4.3S81.9,143.2,81.9,145.9Z"/><path class="cls-7" d="M89,139.7l2.8-.2a4.9,4.9,0,0,1,3.5.9,3.2,3.2,0,0,1,1,2.6,3.5,3.5,0,0,1-2,3.2h0c.9.3,1.3,1.2,1.6,2.5a20.6,20.6,0,0,0,.8,3.5H94.1a17.6,17.6,0,0,1-.6-3.1c-.2-1.6-.6-2.1-1.5-2.1h-.3v5.1H89.1V139.6Zm2.5,5.5H92a1.7,1.7,0,0,0,1.7-1.7v-.2a1.6,1.6,0,0,0-1.4-1.8h-.8Z"/><path class="cls-7" d="M98,139.5h2.5v5.8h0l.6-1.6,1.7-4.1h2.8l-2.9,5.5,2.9,7.2h-2.8L101,147l-.6,1v4.3H97.9V139.5Z"/><g id="Page-1"><g id="xamagon"><path id="Logo" class="cls-7" d="M24.8,137.7a1.5,1.5,0,0,0-1.5.6l-4.6,7.8a1.6,1.6,0,0,0,0,1.6l4.6,7.8a1.6,1.6,0,0,0,1.5.7H34a1.6,1.6,0,0,0,1.5-.7l4.6-7.8a1.6,1.6,0,0,0,0-1.6l-4.6-7.6a1.5,1.5,0,0,0-1.5-.6H24.8Zm.1,3.8v-.3h1.6l.2.5,2.6,4.9h0l2.6-5.1.2-.3h1.6a.6.6,0,0,1,.2.6l-2.6,4.8,2.6,4c.1.1,0-.3-.2-.3H32.3c-.1,0-.1.7-.2.6l-2.6-4.4h0l-2.6,4.1c0,.1-.1-.6-.2-.6H25c-.1,0-.2.5-.2.3l2.6-4.4-2.6-4.6a.2.2,0,0,1,.1-.3h.1Z"/></g></g></g></g></g></svg>