<svg xmlns="http://www.w3.org/2000/svg" viewBox="0 0 90 90"><defs><style>.cls-1{fill:#009500;}.cls-2{fill:#fff;}</style></defs><title>software</title><g id="Layer_2" data-name="Layer 2"><g id="homepage_mobile"><circle class="cls-1" cx="45" cy="45" r="45"/><g id="fa-angle-down"><path class="cls-2" d="M37.2,55.2a.7.7,0,0,1-.9,0l-9.5-9.5a.7.7,0,0,1,0-.9l9.5-9.5a.7.7,0,0,1,.9,0l1,1a.7.7,0,0,1,0,.9l-8,8,8,8a.7.7,0,0,1,0,.9Zm5.5,3.5a.6.6,0,0,1-.8.4l-1.3-.3a.7.7,0,0,1-.4-.8l7.6-26.3a.6.6,0,0,1,.8-.4l1.3.3a.7.7,0,0,1,.4.8Zm11.5-3.5a.7.7,0,0,1-.9,0l-1-1a.7.7,0,0,1,0-.9l8-8-8-8a.7.7,0,0,1,0-.9l1-1a.7.7,0,0,1,.9,0l9.5,9.5a.7.7,0,0,1,0,.9Z"/></g></g></g></svg>